<?xml version="1.0" encoding="UTF-8" standalone="no"?>
<!-- Created with Inkscape (http://www.inkscape.org/) -->

<svg
   xmlns:dc="http://purl.org/dc/elements/1.1/"
   xmlns:cc="http://creativecommons.org/ns#"
   xmlns:rdf="http://www.w3.org/1999/02/22-rdf-syntax-ns#"
   xmlns:svg="http://www.w3.org/2000/svg"
   xmlns="http://www.w3.org/2000/svg"
   xmlns:sodipodi="http://sodipodi.sourceforge.net/DTD/sodipodi-0.dtd"
   xmlns:inkscape="http://www.inkscape.org/namespaces/inkscape"
   width="640"
   height="480"
   viewBox="0 0 169.33333 127"
   version="1.1"
   id="svg8"
   inkscape:version="0.92.3 (2405546, 2018-03-11)"
   sodipodi:docname="img1.svg">
  <defs
     id="defs2" />
  <sodipodi:namedview
     id="base"
     pagecolor="#ffffff"
     bordercolor="#666666"
     borderopacity="1.0"
     inkscape:pageopacity="0.0"
     inkscape:pageshadow="2"
     inkscape:zoom="0.98994949"
     inkscape:cx="325.91012"
     inkscape:cy="243.68378"
     inkscape:document-units="mm"
     inkscape:current-layer="layer1"
     showgrid="false"
     inkscape:window-width="1292"
     inkscape:window-height="745"
     inkscape:window-x="66"
     inkscape:window-y="-8"
     inkscape:window-maximized="1"
     units="px" />
  <metadata
     id="metadata5">
    <rdf:RDF>
      <cc:Work
         rdf:about="">
        <dc:format>image/svg+xml</dc:format>
        <dc:type
           rdf:resource="http://purl.org/dc/dcmitype/StillImage" />
        <dc:title></dc:title>
      </cc:Work>
    </rdf:RDF>
  </metadata>
  <g
     inkscape:label="Layer 1"
     inkscape:groupmode="layer"
     id="layer1"
     transform="translate(0,-169.99998)">
    <rect
       style="opacity:1;fill:#68ff1f;fill-opacity:0.49803922;stroke:#010101;stroke-width:1.05799997;stroke-linecap:square;stroke-linejoin:round;stroke-miterlimit:4;stroke-dasharray:none;stroke-opacity:1;paint-order:fill markers stroke"
       id="rect1"
       width="42.228584"
       height="39.555889"
       x="8.0180855"
       y="175.9269"
       inkscape:label="#rect815" />
    <rect
       style="opacity:1;fill:#4765c5;fill-opacity:0.49803922;stroke:#010101;stroke-width:1.05833328;stroke-linecap:square;stroke-linejoin:round;stroke-miterlimit:4;stroke-dasharray:none;stroke-opacity:1;paint-order:fill markers stroke"
       id="rect3"
       width="45.435822"
       height="47.573978"
       x="14.967093"
       y="237.93341" />
    <rect
       style="opacity:1;fill:#6c9a56;fill-opacity:0.49803922;stroke:#010101;stroke-width:1.05833328;stroke-linecap:square;stroke-linejoin:round;stroke-miterlimit:4;stroke-dasharray:none;stroke-opacity:1;paint-order:fill markers stroke"
       id="rect2"
       width="37.952274"
       height="38.486809"
       x="107.70962"
       y="175.65961"
       inkscape:label="#rect819" />
    <rect
       style="opacity:1;fill:#db2c3e;fill-opacity:0.49803922;stroke:#010101;stroke-width:1.05833328;stroke-linecap:square;stroke-linejoin:round;stroke-miterlimit:4;stroke-dasharray:none;stroke-opacity:1;paint-order:fill markers stroke"
       id="rect4"
       width="56.393867"
       height="44.901279"
       x="86.595329"
       y="230.1826"
       inkscape:label="#rect821" />
    <path
       style="fill:none;stroke:#000000;stroke-width:0.26458332px;stroke-linecap:butt;stroke-linejoin:miter;stroke-opacity:1"
       d="m 14.967093,237.93341 c -1.603617,-0.97999 -3.786626,-1.36423 -4.810851,-2.93996 -0.4998834,-0.76905 0.792244,-1.667 1.336347,-2.40543 1.916495,-2.60095 4.1071,-4.11869 6.681739,-6.1472 1.497623,-1.17994 3.01239,-2.33845 4.543581,-3.4745 2.116786,-1.57052 4.396485,-3.38848 6.949008,-4.27631 1.949166,-0.67797 3.376519,-0.53454 5.34539,-0.53454 1.815833,0 2.095754,-0.24566 3.741774,0.80181 1.161436,0.73909 2.423713,3.0373 2.939966,4.27631 0.499043,1.19771 0.65669,2.23735 1.069078,3.4745 1.064879,3.19465 0.09804,-0.49428 0.801806,2.6727 0.740876,3.33393 -0.127648,-0.38295 0.534541,1.60362 0.02817,0.0845 -0.063,0.20427 0,0.26726 0.063,0.063 0.204274,0.063 0.267268,0 1.106943,-1.10694 0.03507,-0.49075 0.80181,-1.87088 0.869878,-1.56578 2.27576,-2.00849 3.474503,-3.20723 0.314981,-0.31499 0.439332,-0.81017 0.801809,-1.06908 0.298905,-0.21351 0.715886,-0.16636 1.069078,-0.26727 1.231257,-0.35179 0.353213,-0.26727 1.603618,-0.26727 0.178179,0 0.359818,-0.035 0.534538,0 0.276257,0.0553 0.53454,0.17818 0.801809,0.26727 0.267269,0.0891 0.58538,0.0869 0.801809,0.26727 0.342202,0.28517 0.486828,0.75409 0.801807,1.06908 0.227137,0.22713 0.53454,0.35636 0.801809,0.53453 0.675749,0.4505 0.813231,0.64373 1.603618,0.80181 0.349438,0.0699 0.712719,0 1.069078,0 0.35636,0 0.763503,0.18335 1.069079,0 0.275441,-0.16526 0.325493,-0.55792 0.534537,-0.80181 0.32798,-0.38264 0.712719,-0.71272 1.069078,-1.06907 0.630349,-0.63035 0.719513,-0.95857 1.603619,-1.06908 0.442007,-0.0553 0.890897,0 1.336347,0 0.623628,0 1.247259,0 1.870887,0 0.267269,0 0.61282,-0.18899 0.801809,0 0.259739,0.25974 0.151109,0.7206 0.267269,1.06908 0.386797,1.16038 0.267269,-0.18362 0.267269,1.33634 0,0.17818 0,0.35636 0,0.53454 0,0.0891 0,0.35636 0,0.26727 0,-0.44545 0,-0.8909 0,-1.33635 0,-0.67794 -0.112692,-1.26295 0.267269,-1.87088 0.137091,-0.21935 1.439682,-1.86866 1.870887,-2.13816 0.421515,-0.26345 1.832467,-0.73019 2.405425,-0.80181 0.353607,-0.0442 0.712718,0 1.069078,0 0.44545,0 0.8909,0 1.336349,0 1.525175,0 1.727722,-0.20521 3.207235,0.53454 0.287305,0.14366 0.5145,0.39089 0.801809,0.53454 0.251984,0.12599 0.549822,0.14128 0.801806,0.26727 0.287306,0.14365 0.497076,0.43296 0.801809,0.53454 0.253556,0.0845 0.534541,0 0.80181,0 0.534537,0 1.069078,0 1.603615,0 0.534541,0 1.069078,0 1.603619,0 0.356359,0 0.714182,0.0323 1.069078,0 3.122501,-0.28386 0.724905,-0.36096 4.543581,-0.53454 1.067977,-0.0485 2.139259,0.0485 3.207234,0 2.476495,-0.11257 3.332517,-0.43789 5.879931,-0.80181 0.798634,-0.11409 1.610955,-0.12707 2.405425,-0.26727 0.72348,-0.12767 1.41609,-0.39915 2.13816,-0.53454 0.70596,-0.13237 1.42711,-0.16569 2.13815,-0.26727 0.53647,-0.0766 1.06502,-0.20742 1.60362,-0.26727 0.53127,-0.059 1.06908,0 1.60362,0 0.63855,0 1.0173,-0.0845 1.60361,0.26727 0.21608,0.12965 0.31847,0.4049 0.53454,0.53454 1.86122,0.62041 -0.13115,-0.17652 1.33635,0.80181 0.0741,0.0494 0.18275,-0.0282 0.26727,0 0.18899,0.063 0.3392,0.2282 0.53454,0.26727 0.22423,0.0448 2.22425,0 2.40543,0 2.49451,0 4.98903,0 7.48354,0 0.80181,0 1.60362,0 2.40543,0 0.26727,0 0.53722,0.0378 0.80181,0 0.36363,-0.052 0.71271,-0.17818 1.06907,-0.26727 0.53454,0 1.07174,0.0532 1.60362,0 0.36551,-0.0366 0.70768,-0.20156 1.06908,-0.26727 0.6198,-0.11269 1.24825,-0.17148 1.87089,-0.26727 0.53561,-0.0824 1.06393,-0.2182 1.60361,-0.26727 0.44362,-0.0403 0.89363,0.0492 1.33635,0 0.36508,-0.0406 0.70358,-0.23072 1.06908,-0.26727 0.53189,-0.0532 1.06908,0 1.60362,0 1.42543,0 2.85087,0 4.27631,0"
       id="path823"
       inkscape:connector-curvature="0" />
  </g>
</svg>
